# xmcd
#
# Track frame offsets:
#	150
#	8287
#	25018
#	43926
#
# Disc length: 732 seconds
#
# Revision: 1
# Processed by: cddbd v1.5.2PL0 Copyright (c) Steve Scherf et al.
# Submitted via: audiograbber 1.83.01
#
DISCID=1f02da04
DTITLE=The Folkers - Another Folkin' Christmas
DYEAR=2007
DGENRE=
TTITLE0=We Need a Little Folk Song
TTITLE1=The North Pole
TTITLE2=Climb Down the Chimney Santa
TTITLE3=You're a Mean One Mr. Grinch
EXTD=
EXTT0=
EXTT1=
EXTT2=
EXTT3=
PLAYORDER=
